General
Complete name                    : Addams Family Values.mkv
Format                           : Matroska
File size                        : 1.81 GiB
Duration                         : 1h 30mn
Overall bit rate                 : 2 867 Kbps


Video
ID                               : 1
Format                           : AVC
Duration                         : 1h 30mn
Bit rate                         : 2 426 Kbps
Nominal bit rate                 : 2 399 Kbps
Width                            : 702 pixels
Height                           : 548 pixels
Display aspect ratio             : 16:9
Frame rate                       : 25.000 fps
Resolution                       : 8 bits
Colorimetry                      : 4:2:0
Scan type                        : Progressive
Bits/(Pixel*Frame)               : 0.252
Stream size                      : 1.53 GiB (85%)
Writing library                  : x264 core 79


Audio
ID                               : 2
Format                           : AC-3
Format/Info                      : Audio Coding 3
Codec ID                         : A_AC3
Duration                         : 1h 30mn
Bit rate mode                    : Constant
Bit rate                         : 384 Kbps
Channel(s)                       : 6 channels
Channel positions                : Front: L C R, Surround: L R, LFE
Sampling rate                    : 48.0 KHz
Stream size                      : 248 MiB (13%)
Language                         : English

Text #1
Language                         : English

Text #2
Language                         : English

Text #3
Language                         : German

Text #4
Language                         : Swedish

Text #5
Language                         : Danish

Text #6
Language                         : Norwegian

Text #7
Language                         : Finnish

Text #8
Language                         : Dutch

Text #9
Language                         : Bulgarian

Text #10
Language                         : Icelandic

Text #11
Language                         : Hungarian

Text #12
Language                         : Turkish

Text #13
Language                         : Arabic

Text #14
Language                         : Romanian

Text #15
Language                         : Czech

Text #16
Language                         : Polish

